<?xml version="1.0" encoding="iso-8859-1"?>
<!-- Generator: Adobe Illustrator 19.0.0, SVG Export Plug-In . SVG Version: 6.00 Build 0)  -->
<svg version="1.1" id="Capa_1" xmlns="http://www.w3.org/2000/svg" xmlns:xlink="http://www.w3.org/1999/xlink" x="0px" y="0px"
	 viewBox="0 0 512.001 512.001" style="enable-background:new 0 0 512.001 512.001;" xml:space="preserve">
<g>
	<path style="fill:#FF8D8D;" d="M166.403,92.646c-57.819-55.684-82.351-49.987-78.214,44.745
		C110.478,118.314,136.998,103.006,166.403,92.646z"/>
	<path style="fill:#F0F0F0;" d="M88.189,137.391c-4.137-94.733,20.394-100.43,78.214-44.745c11.769-4.146,24-7.501,36.605-9.987
		c-12.021-20.804-75.901-71.439-110.647-72.6C55.29,7.213,42.474,108.588,58.449,168.24
		C67.224,157.134,77.191,146.803,88.189,137.391z"/>
	<path style="fill:#FFA655;" d="M419.639,10.059c-34.745,1.162-98.624,51.795-110.648,72.6c12.607,2.486,24.838,5.84,36.607,9.987
		c57.819-55.684,82.352-49.987,78.214,44.745c10.997,9.412,20.965,19.742,29.74,30.849
		C469.527,108.587,456.711,7.213,419.639,10.059z"/>
	<path style="fill:#FF8D8D;" d="M423.812,137.391c4.138-94.733-20.394-100.43-78.214-44.745
		C375.002,103.006,401.524,118.314,423.812,137.391z"/>
	<path style="fill:#FFA655;" d="M423.812,137.391c-22.288-19.077-48.809-34.385-78.214-44.745c-11.769-4.146-24-7.501-36.607-9.987
		c-17.048-3.362-34.782-5.136-52.99-5.136c-18.209,0-35.943,1.774-52.992,5.136c-12.605,2.486-24.837,5.84-36.605,9.987
		c-29.404,10.36-55.924,25.668-78.214,44.745c-10.998,9.413-20.965,19.743-29.74,30.849C31.679,202.12,16,243.22,16,287.524
		c0,86.765,60.139,161.234,145.93,193.25c-16.814-11.832-26.886-29.402-26.886-54.61c0-24.012,9.139-51.218,24.541-74.943
		c5.819-8.964,12.533-17.431,19.984-25.04c11.697-11.944,25.215-21.776,39.951-28.103c-0.171-1.104-0.26-2.217-0.26-3.337
		c0-17.755,16.449-23.035,36.74-23.035c20.29,0,36.739,5.28,36.739,23.035c0,1.12-0.089,2.233-0.26,3.337
		c14.737,6.327,28.254,16.159,39.951,28.103c7.452,7.609,14.165,16.076,19.984,25.04c15.401,23.724,24.542,50.93,24.542,74.943
		c0,25.208-10.072,42.778-26.887,54.61c85.792-32.015,145.931-106.485,145.931-193.25c0-44.304-15.681-85.405-42.45-119.284
		C444.777,157.133,434.809,146.803,423.812,137.391z"/>
	<path style="fill:#FF8D8D;" d="M292.741,294.739c0-17.755-16.449-23.035-36.739-23.035c-20.291,0-36.74,5.28-36.74,23.035
		c0,1.12,0.089,2.233,0.259,3.337c2.525,16.393,22.967,30.589,36.481,30.589s33.955-14.196,36.48-30.589
		C292.652,296.973,292.741,295.859,292.741,294.739z"/>
	<path style="fill:#F0F0F0;" d="M292.481,298.076c-2.524,16.393-22.966,30.589-36.479,30.589c-13.515,0-33.956-14.196-36.481-30.589
		c-14.736,6.327-28.254,16.159-39.951,28.103c-7.451,7.609-14.165,16.077-19.984,25.04c-15.402,23.724-24.541,50.93-24.541,74.943
		c0,25.208,10.071,42.778,26.886,54.61C184.105,496.377,218.007,502,256.001,502c37.993,0,71.896-5.623,94.071-21.227
		c16.815-11.832,26.887-29.402,26.887-54.61c0-24.012-9.141-51.219-24.542-74.943c-5.819-8.964-12.532-17.431-19.984-25.04
		C320.735,314.235,307.218,304.403,292.481,298.076z"/>
</g>
<path d="M115.211,147.659l-0.254,0.189c-4.418,3.313-5.281,9.557-1.967,13.975c1.96,2.613,4.963,3.985,8.005,3.985
	c2.102,0,4.222-0.655,6.027-2.009c4.455-3.261,5.424-9.516,2.164-13.973C125.925,145.369,119.668,144.398,115.211,147.659z"/>
<path d="M224.407,114.497c-0.955-5.44-6.143-9.075-11.578-8.121c-25.491,4.474-49.787,12.924-72.215,25.115
	c-4.853,2.637-6.648,8.71-4.01,13.562c1.813,3.335,5.248,5.226,8.794,5.226c1.613,0,3.25-0.392,4.767-1.216
	c20.521-11.154,42.767-18.889,66.121-22.987C221.725,125.12,225.361,119.936,224.407,114.497z"/>
<path d="M506.002,287.524c0-43.947-14.523-85.887-41.56-121.616c11.326-48.421,6.334-123.516-17.909-152.722
	C436.816,1.481,426.29-0.432,419.098,0.072c-36.015,1.369-95.003,46.203-114.638,71.562c-15.798-2.716-32.008-4.11-48.459-4.11
	c-16.452,0-32.662,1.395-48.46,4.11C187.906,46.276,128.919,1.441,92.902,0.072c-7.197-0.499-17.719,1.409-27.435,13.114
	C41.223,42.392,36.232,117.488,47.559,165.909c-27.036,35.728-41.56,77.669-41.56,121.615c0,88.149,59.32,167.366,151.237,202.161
	c2.682,1.821,5.521,3.54,8.535,5.145c21.403,11.394,51.761,17.171,90.23,17.171s68.826-5.777,90.23-17.171
	c3.015-1.605,5.853-3.324,8.536-5.145C446.683,454.89,506.002,375.673,506.002,287.524z M419.973,20.053
	c0.145-0.004,0.288-0.013,0.432-0.023c1.346-0.105,5.466-0.422,10.739,5.93c16.339,19.684,23.331,75.566,16.673,120.428
	c-4.379-4.592-8.99-9.048-13.827-13.361c1.759-50.75-5.007-75.898-22.38-83.738c-16.152-7.29-36.801,2.28-68.479,31.917
	c-5.411-1.766-10.895-3.368-16.444-4.799C347.788,54.372,394.797,20.895,419.973,20.053z M364.206,89.079
	c26.352-23.159,36.063-22.967,39.175-21.562c3.464,1.563,10.724,9.639,10.87,49.645C398.768,105.988,381.974,96.593,364.206,89.079z
	 M80.856,25.96c5.271-6.35,9.388-6.034,10.739-5.93c0.144,0.011,0.288,0.019,0.432,0.023c25.178,0.842,72.187,34.319,93.287,56.353
	c-5.549,1.431-11.032,3.033-16.444,4.799C137.193,51.568,116.543,42,100.392,49.287c-17.374,7.84-24.139,32.987-22.381,83.74
	c-4.837,4.313-9.448,8.77-13.827,13.361C57.526,101.527,64.516,45.644,80.856,25.96z M97.749,117.164
	c0.147-40.008,7.407-48.083,10.87-49.646c3.112-1.406,12.824-1.596,39.175,21.562C130.027,96.593,113.233,105.988,97.749,117.164z
	 M168.157,472.94c-0.293-0.231-0.6-0.45-0.923-0.65c-22.18-15.713-22.191-36.605-22.191-46.126c0-29.197,15.869-66.653,41.83-93.155
	c0.001-0.001,0.002-0.002,0.003-0.003c0,0,0.001-0.001,0.001-0.002c8.108-8.276,17.197-15.479,27.101-21.03
	c2.779,4.991,6.732,9.737,11.773,14.013c6.246,5.298,13.359,9.161,20.248,11.152v40.507c-3.438,4.689-8.815,7.524-14.517,7.524
	c-6.464,0-12.514-3.639-15.788-9.496c-2.695-4.82-8.787-6.544-13.608-3.849c-4.821,2.695-6.544,8.788-3.849,13.608
	c6.806,12.174,19.545,19.736,33.245,19.736c9.081,0,17.728-3.338,24.516-9.124c6.789,5.786,15.436,9.124,24.517,9.124
	c13.699,0,26.438-7.562,33.245-19.735c2.695-4.82,0.973-10.914-3.848-13.609c-4.821-2.696-10.913-0.973-13.609,3.847
	c-3.275,5.858-9.325,9.497-15.788,9.497c-5.702,0-11.08-2.835-14.517-7.524v-40.507c6.89-1.991,14.002-5.854,20.248-11.152
	c5.041-4.276,8.993-9.022,11.771-14.013c9.903,5.551,18.992,12.753,27.1,21.028c0.001,0.001,0.002,0.003,0.003,0.004
	c0.002,0.002,0.005,0.004,0.007,0.006c25.96,26.502,41.828,63.956,41.828,93.152c0,9.52-0.012,30.409-22.185,46.122
	c-0.327,0.203-0.639,0.424-0.936,0.659c-15.878,10.84-42.658,19.055-87.837,19.055C210.816,492,184.034,483.782,168.157,472.94z
	 M256,318.665c-9.352,0-26.74-12.298-26.74-23.926c0-3.565,0-13.035,26.74-13.035c26.739,0,26.739,9.47,26.739,13.035
	C282.741,306.367,265.353,318.665,256,318.665z M382.382,454.658c3.04-8.584,4.576-18.086,4.576-28.494
	c0-12.591-2.342-26.146-6.718-39.728c12.875-1.697,25.783,0.356,38.507,6.179c1.349,0.617,2.763,0.909,4.155,0.909
	c3.791,0,7.418-2.168,9.099-5.841c2.299-5.022,0.091-10.956-4.932-13.254c-17.865-8.176-36.102-10.529-54.324-7.051
	c-1.935-4.165-4.057-8.286-6.349-12.342c24.576-12.075,51.473-15.581,80.099-10.404c5.438,0.982,10.637-2.626,11.621-8.06
	c0.982-5.435-2.626-10.637-8.061-11.62c-33.774-6.109-65.525-1.677-94.528,13.155c-2.795-3.847-5.72-7.543-8.759-11.073
	c20.206-16.073,44.274-24.767,71.706-25.839c5.518-0.215,9.817-4.864,9.602-10.382c-0.215-5.52-4.866-9.805-10.383-9.603
	c-32.539,1.271-61.071,11.832-84.955,31.419c-9.42-8.516-19.572-15.566-30.123-20.854c-1.011-12.418-9.056-30.068-46.614-30.068
	c-37.56,0-45.604,17.65-46.615,30.068c-10.551,5.288-20.704,12.338-30.124,20.854c-23.883-19.586-52.415-30.148-84.956-31.419
	c-5.521-0.207-10.167,4.083-10.382,9.603c-0.216,5.518,4.083,10.167,9.602,10.382c27.431,1.072,51.499,9.767,71.706,25.839
	c-3.039,3.531-5.963,7.227-8.758,11.074c-29.003-14.832-60.754-19.265-94.528-13.155c-5.435,0.983-9.043,6.186-8.06,11.62
	c0.983,5.435,6.189,9.044,11.62,8.06c28.629-5.178,55.524-1.671,80.1,10.404c-2.292,4.057-4.414,8.177-6.348,12.342
	c-18.224-3.479-36.459-1.126-54.326,7.052c-5.022,2.298-7.229,8.232-4.931,13.254c1.681,3.673,5.307,5.841,9.099,5.841
	c1.392,0,2.807-0.292,4.155-0.91c12.723-5.823,25.633-7.877,38.507-6.179c-4.376,13.582-6.718,27.137-6.718,39.728
	c0,10.408,1.536,19.911,4.576,28.495c-63.992-36.572-103.62-98.983-103.62-167.135C25.999,177.243,129.177,87.523,256,87.523
	s230.002,89.72,230.002,200.002C486.002,355.678,446.375,418.086,382.382,454.658z"/>
<path d="M319.904,202.448c-15.605,0-30.12,8.627-37.879,22.514c-2.694,4.821-0.97,10.914,3.852,13.607
	c4.821,2.693,10.914,0.97,13.607-3.853c4.228-7.568,12.053-12.269,20.42-12.269c8.366,0,16.19,4.701,20.419,12.269
	c1.831,3.278,5.232,5.124,8.738,5.124c1.651,0,3.325-0.41,4.869-1.272c4.821-2.694,6.546-8.786,3.852-13.607
	C350.023,211.075,335.509,202.448,319.904,202.448z"/>
<path d="M192.098,202.448c-15.606,0-30.12,8.627-37.879,22.514c-2.694,4.821-0.969,10.914,3.852,13.607
	c1.544,0.862,3.217,1.272,4.868,1.272c3.505,0,6.908-1.847,8.739-5.124c4.228-7.568,12.052-12.269,20.419-12.269
	c8.367,0,16.191,4.701,20.418,12.268c2.694,4.822,8.786,6.547,13.607,3.854c4.821-2.694,6.547-8.786,3.854-13.607
	C222.219,211.075,207.704,202.448,192.098,202.448z"/>
<g>
</g>
<g>
</g>
<g>
</g>
<g>
</g>
<g>
</g>
<g>
</g>
<g>
</g>
<g>
</g>
<g>
</g>
<g>
</g>
<g>
</g>
<g>
</g>
<g>
</g>
<g>
</g>
<g>
</g>
</svg>
