<?xml version="1.0" encoding="iso-8859-1"?>
<!-- Generator: Adobe Illustrator 19.0.0, SVG Export Plug-In . SVG Version: 6.00 Build 0)  -->
<svg version="1.1" id="Capa_1" xmlns="http://www.w3.org/2000/svg" xmlns:xlink="http://www.w3.org/1999/xlink" x="0px" y="0px"
	 viewBox="0 0 496.304 496.304" style="enable-background:new 0 0 496.304 496.304;" xml:space="preserve">
<g>
	<g>
		<path d="M456.152,88.304h-56v-32c0-8.288-5.576-15.632-13.568-17.848L248.152,0L109.72,38.456
			c-7.992,2.216-13.568,9.56-13.568,17.848c0,8.288,5.576,15.632,13.568,17.848l18.432,5.12v9.032h-88c-22.056,0-40,17.944-40,40
			v280c0,22.056,17.944,40,40,40h96v32h-32v16h288v-16h-32v-32h96c22.056,0,40-17.944,40-40v-280
			C496.152,106.248,478.208,88.304,456.152,88.304z M392.152,176.304c4.416,0,8,3.592,8,8v40h-16v-40
			C384.152,179.896,387.736,176.304,392.152,176.304z M114,58.736c-1.08-0.304-1.848-1.304-1.848-2.432s0.768-2.128,1.848-2.432
			l134.152-37.264l134.152,37.264c1.08,0.304,1.848,1.304,1.848,2.432s-0.768,2.128-1.848,2.432L248.152,96L114,58.736z
			 M352.152,83.712v30.552l-104,29.72l-104-29.712V83.72l104,28.888L352.152,83.712z M344.152,480.304h-192v-32h192V480.304z
			 M480.152,408.304c0,13.232-10.768,24-24,24h-416c-13.232,0-24-10.768-24-24v-24h464V408.304z M480.152,368.304h-464v-240
			c0-13.232,10.768-24,24-24h88v22.032l120,34.288l120-34.288V79.272l16-4.448v86.952c-9.288,3.312-16,12.112-16,22.528v56h48v-56
			c0-10.416-6.712-19.216-16-22.528v-57.472h56c13.232,0,24,10.768,24,24V368.304z"/>
	</g>
</g>
<g>
	<g>
		<path d="M224.152,217.352v93.896l70.424-46.944L224.152,217.352z M240.152,247.256l25.576,17.048l-25.576,17.056V247.256z"/>
	</g>
</g>
<g>
	<g>
		<path d="M248.152,176.304c-48.52,0-88,39.48-88,88s39.48,88,88,88s88-39.48,88-88S296.672,176.304,248.152,176.304z
			 M248.152,336.304c-39.704,0-72-32.296-72-72c0-39.696,32.296-72,72-72c39.704,0,72,32.304,72,72
			C320.152,304.008,287.856,336.304,248.152,336.304z"/>
	</g>
</g>
<g>
	<g>
		<rect x="200.152" y="400.304" width="96" height="16"/>
	</g>
</g>
<g>
	<g>
		<rect x="384.152" y="256.304" width="16" height="16"/>
	</g>
</g>
<g>
	<g>
		<rect x="352.152" y="256.304" width="16" height="16"/>
	</g>
</g>
<g>
	<g>
		<rect x="128.152" y="256.304" width="16" height="16"/>
	</g>
</g>
<g>
	<g>
		<rect x="96.152" y="256.304" width="16" height="16"/>
	</g>
</g>
<g>
	<g>
		<rect x="64.152" y="256.304" width="16" height="16"/>
	</g>
</g>
<g>
	<g>
		<rect x="416.152" y="256.304" width="16" height="16"/>
	</g>
</g>
<g>
</g>
<g>
</g>
<g>
</g>
<g>
</g>
<g>
</g>
<g>
</g>
<g>
</g>
<g>
</g>
<g>
</g>
<g>
</g>
<g>
</g>
<g>
</g>
<g>
</g>
<g>
</g>
<g>
</g>
</svg>
